#!OML:ASF H:\LiuWeirdWalks\Patient Classification 1\Patient 1\Session 1\male.ASF
:FULLY-SPECIFIED
:DEGREES
1039
root 1.98055 18.1894 18.551 5.19067 3.59478 0.0890081
lowerback 1.98801 -6.97861 -3.7893
upperback -2.21457 -9.36499 4.03391
thorax -2.11733 -4.59385 6.53966
lowerneck -14.2162 4.88017 13.7442
upperneck 21.6267 5.94531 -10.4616
head 9.94378 2.75739 -5.23935
rclavicle -6.08281e-014 3.97569e-015
rhumerus -41.0977 -4.62929 -77.3494
rradius 27.2632
rwrist -6.08004
rhand -16.9402 -1.64058
rfingers 7.12502
rthumb 9.293 -31.4158
lclavicle -6.08281e-014 3.97569e-015
lhumerus -36.1187 2.17391 83.0845
lradius 36.7938
lwrist 13.6128
lhand -12.6482 -2.37011
lfingers 7.12502
lthumb 13.4323 27.1768
rfemur -23.0422 -1.04398 23.0317
rtibia 27.1851
rfoot -11.2773 -14.7091
rtoes -10.0051
lfemur 13.1705 -4.24305 -18.9576
ltibia 22.5966
lfoot 23.4847 -6.79235
ltoes -25.9061
1040
root 1.96258 18.192 18.6374 5.19058 3.85077 -0.0103422
lowerback 2.08309 -7.02884 -3.76653
upperback -2.17257 -9.43289 4.0904
thorax -2.11156 -4.62939 6.59528
lowerneck -14.3637 4.94536 13.8079
upperneck 21.6601 6.01596 -10.5086
head 9.99778 2.78695 -5.25748
rclavicle 4.92489e-014 -1.59028e-015
rhumerus -40.8967 -4.54297 -77.471
rradius 27.1716
rwrist -5.95764
rhand -16.9767 -1.51407
rfingers 7.12502
rthumb 9.25782 -31.2908
lclavicle 4.92489e-014 -1.59028e-015
lhumerus -36.1582 2.26778 83.0282
lradius 36.8724
lwrist 13.6687
lhand -12.718 -2.42489
lfingers 7.12502
lthumb 13.365 27.1265
rfemur -22.7661 -0.951336 23.2157
rtibia 27.2412
rfoot -11.235 -14.9727
rtoes -9.49079
lfemur 12.7163 -4.34576 -18.666
ltibia 23.5853
lfoot 24.0183 -7.07068
ltoes -25.2975
1041
root 1.94483 18.1947 18.723 5.185 4.12882 -0.104668
lowerback 2.11062 -6.94775 -3.65352
upperback -2.12759 -9.31977 4.14245
thorax -2.10464 -4.57544 6.58832
lowerneck -14.5744 4.85434 13.5435
upperneck 21.716 5.90582 -10.4107
head 10.0296 2.71971 -5.19183
rclavicle 4.57702e-014 1.51076e-014
rhumerus -40.804 -4.73106 -77.3506
rradius 27.1419
rwrist -5.91451
rhand -17.0122 -1.43053
rfingers 7.12502
rthumb 9.22353 -31.2088
lclavicle 4.57702e-014 1.51076e-014
lhumerus -36.1033 2.06217 83.234
lradius 36.9118
lwrist 13.7247
lhand -12.788 -2.42274
lfingers 7.12502
lthumb 13.2975 27.133
rfemur -22.4724 -0.871099 23.3922
rtibia 27.2791
rfoot -11.1949 -15.278
rtoes -8.92972
lfemur 12.2237 -4.48625 -18.3854
ltibia 24.6487
lfoot 24.4872 -7.35247
ltoes -24.581
1042
root 1.92737 18.1973 18.8071 5.17414 4.43068 -0.226328
lowerback 2.12811 -6.88 -3.5037
upperback -2.08788 -9.223 4.18089
thorax -2.1031 -4.52993 6.54623
lowerneck -14.7049 4.7628 13.3459
upperneck 21.7491 5.79143 -10.3268
head 10.0406 2.6565 -5.14333
rclavicle 2.31087e-014 6.36111e-015
rhumerus -40.7485 -4.90322 -77.2833
rradius 27.1348
rwrist -5.92726
rhand -17.0566 -1.42483
rfingers 7.12502
rthumb 9.18073 -31.205
lclavicle 2.31087e-014 6.36111e-015
lhumerus -36.0822 1.85869 83.3909
lradius 36.9541
lwrist 13.7595
lhand -12.8338 -2.39922
lfingers 7.12502
lthumb 13.2534 27.1594
rfemur -22.163 -0.808697 23.5976
rtibia 27.2884
rfoot -11.1413 -15.5901
rtoes -8.33496
lfemur 11.6823 -4.64514 -18.0711
ltibia 25.7933
lfoot 24.8918 -7.672
ltoes -23.8005
1043
root 1.91 18.2 18.8905 5.15674 4.74058 -0.357416
lowerback 2.12077 -6.78881 -3.32184
upperback -2.05894 -9.09327 4.20568
thorax -2.11003 -4.46779 6.46997
lowerneck -14.7761 4.63309 13.1243
upperneck 21.7944 5.63186 -10.2181
head 10.0372 2.57476 -5.08872
rclavicle 4.51738e-014 -1.27222e-014
rhumerus -40.7548 -5.14332 -77.1863
rradius 27.1415
rwrist -5.9637
rhand -17.0994 -1.43193
rfingers 7.12502
rthumb 9.13947 -31.2139
lclavicle 4.51738e-014 -1.27222e-014
lhumerus -36.0912 1.61167 83.5609
lradius 37.0008
lwrist 13.7211
lhand -12.8566 -2.37867
lfingers 7.12502
lthumb 13.2314 27.1814
rfemur -21.8385 -0.751163 23.8117
rtibia 27.2762
rfoot -11.0658 -15.8967
rtoes -7.68207
lfemur 11.1028 -4.80362 -17.7427
ltibia 27.0084
lfoot 25.2618 -8.01464
ltoes -22.8406
1044
root 1.89313 18.2025 18.9731 5.13264 5.05552 -0.513035
lowerback 2.14774 -6.7953 -3.16908
upperback -2.03797 -9.09621 4.22173
thorax -2.12353 -4.47151 6.40582
lowerneck -14.7264 4.60951 13.1832
upperneck 21.7833 5.59315 -10.2324
head 10.0209 2.56161 -5.10946
rclavicle 5.31252e-014 -2.38542e-014
rhumerus -40.7334 -5.15684 -77.3029
rradius 27.142
rwrist -6.01062
rhand -17.1377 -1.44436
rfingers 7.12502
rthumb 9.10245 -31.2279
lclavicle 5.31252e-014 -2.38542e-014
lhumerus -36.1909 1.58354 83.5189
lradius 37.0772
lwrist 13.6912
lhand -12.8808 -2.37547
lfingers 7.12502
lthumb 13.2081 27.1861
rfemur -21.5025 -0.719531 24.0536
rtibia 27.2432
rfoot -10.9444 -16.1702
rtoes -6.95725
lfemur 10.4871 -4.95863 -17.3858
ltibia 28.2873
lfoot 25.6227 -8.36426
ltoes -21.6384
